<svg width="161" height="38" viewBox="0 0 161 38" fill="none" xmlns="http://www.w3.org/2000/svg">
<path d="M22.317 27.4963V37.292H28.2457V26.1127C26.6831 26.0359 24.6799 26.328 22.317 27.4963Z" fill="#010626"/>
<path d="M15.3204 32.9549H20.6016V28.467C18.9744 29.5028 17.2064 30.9545 15.3204 32.9549" fill="#010626"/>
<path d="M28.2467 19.8978V12.094C28.2467 11.1602 29.0081 10.3726 29.9107 10.3726H30.6345V4.69177H29.9107C25.7231 4.69177 22.317 8.01269 22.317 12.094V20.9654C21.7335 21.1401 21.1607 21.3466 20.6013 21.5841V0.184875C17.3581 0.184875 14.7291 2.72822 14.7291 5.8657V14.9166C13.2627 14.1148 11.6058 13.6959 9.92142 13.7012C4.4493 13.7004 0 18.0318 0 23.357C0 28.6492 4.4493 32.955 9.92142 32.955C11.6059 32.9605 13.2628 32.5415 14.7291 31.7393C14.7291 31.7393 23.2529 21.0143 32.4958 25.6349V19.8978H28.2467ZM9.92142 27.2191C7.68247 27.2191 5.93002 25.524 5.93002 23.3581C5.93002 21.1965 7.71928 19.4381 9.92142 19.4381C12.154 19.4381 13.97 21.1952 13.9735 23.3581C13.9735 25.4866 12.1553 27.2191 9.92142 27.2191Z" fill="#021859"/>
<path d="M46.7983 16.7465C46.7983 17.2235 46.7188 17.6615 46.5598 18.0605C46.4008 18.4595 46.1773 18.803 45.8893 19.091C45.6013 19.379 45.2548 19.6025 44.8498 19.7615C44.4448 19.9205 43.9948 20 43.4998 20H41.0203V13.493H43.4998C43.9948 13.493 44.4448 13.574 44.8498 13.736C45.2548 13.895 45.6013 14.1185 45.8893 14.4065C46.1773 14.6915 46.4008 15.0335 46.5598 15.4325C46.7188 15.8315 46.7983 16.2695 46.7983 16.7465ZM45.5563 16.7465C45.5563 16.3895 45.5083 16.07 45.4123 15.788C45.3193 15.503 45.1828 15.263 45.0028 15.068C44.8258 14.87 44.6098 14.7185 44.3548 14.6135C44.1028 14.5085 43.8178 14.456 43.4998 14.456H42.2353V19.037H43.4998C43.8178 19.037 44.1028 18.9845 44.3548 18.8795C44.6098 18.7745 44.8258 18.6245 45.0028 18.4295C45.1828 18.2315 45.3193 17.9915 45.4123 17.7095C45.5083 17.4245 45.5563 17.1035 45.5563 16.7465ZM52.9028 17.543L52.1108 15.3785C52.0718 15.2825 52.0313 15.1685 51.9893 15.0365C51.9473 14.9045 51.9053 14.762 51.8633 14.609C51.8243 14.762 51.7838 14.906 51.7418 15.041C51.6998 15.173 51.6593 15.2885 51.6203 15.3875L50.8328 17.543H52.9028ZM55.0403 20H54.1043C53.9993 20 53.9138 19.9745 53.8478 19.9235C53.7818 19.8695 53.7323 19.8035 53.6993 19.7255L53.2133 18.398H50.5178L50.0318 19.7255C50.0078 19.7945 49.9613 19.8575 49.8923 19.9145C49.8233 19.9715 49.7378 20 49.6358 20H48.6908L51.2513 13.493H52.4843L55.0403 20ZM62.9994 13.493V20H62.3784C62.2824 20 62.2014 19.985 62.1354 19.955C62.0724 19.922 62.0109 19.868 61.9509 19.793L58.5534 15.455C58.5714 15.653 58.5804 15.836 58.5804 16.004V20H57.5139V13.493H58.1484C58.1994 13.493 58.2429 13.496 58.2789 13.502C58.3179 13.505 58.3509 13.514 58.3779 13.529C58.4079 13.541 58.4364 13.5605 58.4634 13.5875C58.4904 13.6115 58.5204 13.6445 58.5534 13.6865L61.9644 18.0425C61.9554 17.9375 61.9479 17.834 61.9419 17.732C61.9359 17.63 61.9329 17.5355 61.9329 17.4485V13.493H62.9994ZM67.4634 20H66.2484V13.493H67.4634V20ZM74.5318 19.001V20H70.7203V13.493H71.9308V19.001H74.5318ZM83.1731 16.7465C83.1731 17.2235 83.0936 17.666 82.9346 18.074C82.7786 18.479 82.5566 18.83 82.2686 19.127C81.9806 19.424 81.6341 19.6565 81.2291 19.8245C80.8241 19.9895 80.3741 20.072 79.8791 20.072C79.3871 20.072 78.9386 19.9895 78.5336 19.8245C78.1286 19.6565 77.7806 19.424 77.4896 19.127C77.2016 18.83 76.9781 18.479 76.8191 18.074C76.6601 17.666 76.5806 17.2235 76.5806 16.7465C76.5806 16.2695 76.6601 15.8285 76.8191 15.4235C76.9781 15.0155 77.2016 14.663 77.4896 14.366C77.7806 14.069 78.1286 13.838 78.5336 13.673C78.9386 13.505 79.3871 13.421 79.8791 13.421C80.2091 13.421 80.5196 13.46 80.8106 13.538C81.1016 13.613 81.3686 13.721 81.6116 13.862C81.8546 14 82.0721 14.1695 82.2641 14.3705C82.4591 14.5685 82.6241 14.7905 82.7591 15.0365C82.8941 15.2825 82.9961 15.5495 83.0651 15.8375C83.1371 16.1255 83.1731 16.4285 83.1731 16.7465ZM81.9356 16.7465C81.9356 16.3895 81.8876 16.07 81.7916 15.788C81.6956 15.503 81.5591 15.2615 81.3821 15.0635C81.2051 14.8655 80.9891 14.714 80.7341 14.609C80.4821 14.504 80.1971 14.4515 79.8791 14.4515C79.5611 14.4515 79.2746 14.504 79.0196 14.609C78.7676 14.714 78.5516 14.8655 78.3716 15.0635C78.1946 15.2615 78.0581 15.503 77.9621 15.788C77.8661 16.07 77.8181 16.3895 77.8181 16.7465C77.8181 17.1035 77.8661 17.4245 77.9621 17.7095C78.0581 17.9915 78.1946 18.2315 78.3716 18.4295C78.5516 18.6245 78.7676 18.7745 79.0196 18.8795C79.2746 18.9845 79.5611 19.037 79.8791 19.037C80.1971 19.037 80.4821 18.9845 80.7341 18.8795C80.9891 18.7745 81.2051 18.6245 81.3821 18.4295C81.5591 18.2315 81.6956 17.9915 81.7916 17.7095C81.8876 17.4245 81.9356 17.1035 81.9356 16.7465ZM91.2396 14.456V16.382H93.6786V17.3495H91.2396V20H90.0246V13.493H94.1286V14.456H91.2396ZM98.1373 20H96.9223V13.493H98.1373V20ZM107.6 16.7465C107.6 17.2235 107.52 17.666 107.361 18.074C107.205 18.479 106.983 18.83 106.695 19.127C106.407 19.424 106.061 19.6565 105.656 19.8245C105.251 19.9895 104.801 20.072 104.306 20.072C103.814 20.072 103.365 19.9895 102.96 19.8245C102.555 19.6565 102.207 19.424 101.916 19.127C101.628 18.83 101.405 18.479 101.246 18.074C101.087 17.666 101.007 17.2235 101.007 16.7465C101.007 16.2695 101.087 15.8285 101.246 15.4235C101.405 15.0155 101.628 14.663 101.916 14.366C102.207 14.069 102.555 13.838 102.96 13.673C103.365 13.505 103.814 13.421 104.306 13.421C104.636 13.421 104.946 13.46 105.237 13.538C105.528 13.613 105.795 13.721 106.038 13.862C106.281 14 106.499 14.1695 106.691 14.3705C106.886 14.5685 107.051 14.7905 107.186 15.0365C107.321 15.2825 107.423 15.5495 107.492 15.8375C107.564 16.1255 107.6 16.4285 107.6 16.7465ZM106.362 16.7465C106.362 16.3895 106.314 16.07 106.218 15.788C106.122 15.503 105.986 15.2615 105.809 15.0635C105.632 14.8655 105.416 14.714 105.161 14.609C104.909 14.504 104.624 14.4515 104.306 14.4515C103.988 14.4515 103.701 14.504 103.446 14.609C103.194 14.714 102.978 14.8655 102.798 15.0635C102.621 15.2615 102.485 15.503 102.389 15.788C102.293 16.07 102.245 16.3895 102.245 16.7465C102.245 17.1035 102.293 17.4245 102.389 17.7095C102.485 17.9915 102.621 18.2315 102.798 18.4295C102.978 18.6245 103.194 18.7745 103.446 18.8795C103.701 18.9845 103.988 19.037 104.306 19.037C104.624 19.037 104.909 18.9845 105.161 18.8795C105.416 18.7745 105.632 18.6245 105.809 18.4295C105.986 18.2315 106.122 17.9915 106.218 17.7095C106.314 17.4245 106.362 17.1035 106.362 16.7465ZM112.429 16.589C112.657 16.589 112.855 16.5605 113.023 16.5035C113.194 16.4465 113.334 16.3685 113.442 16.2695C113.553 16.1675 113.635 16.0475 113.689 15.9095C113.743 15.7715 113.77 15.62 113.77 15.455C113.77 15.125 113.661 14.8715 113.442 14.6945C113.226 14.5175 112.894 14.429 112.447 14.429H111.673V16.589H112.429ZM115.543 20H114.45C114.243 20 114.093 19.919 114 19.757L112.632 17.6735C112.581 17.5955 112.524 17.54 112.461 17.507C112.401 17.474 112.311 17.4575 112.191 17.4575H111.673V20H110.463V13.493H112.447C112.888 13.493 113.266 13.5395 113.581 13.6325C113.899 13.7225 114.159 13.85 114.36 14.015C114.564 14.18 114.714 14.378 114.81 14.609C114.906 14.837 114.954 15.089 114.954 15.365C114.954 15.584 114.921 15.791 114.855 15.986C114.792 16.181 114.699 16.358 114.576 16.517C114.456 16.676 114.306 16.8155 114.126 16.9355C113.949 17.0555 113.746 17.15 113.518 17.219C113.596 17.264 113.668 17.318 113.734 17.381C113.8 17.441 113.86 17.513 113.914 17.597L115.543 20ZM119.261 14.456V16.2605H121.538V17.192H119.261V19.0325H122.15V20H118.046V13.493H122.15V14.456H119.261ZM130.508 13.493V20H129.887C129.791 20 129.71 19.985 129.644 19.955C129.581 19.922 129.52 19.868 129.46 19.793L126.062 15.455C126.08 15.653 126.089 15.836 126.089 16.004V20H125.023V13.493H125.657C125.708 13.493 125.752 13.496 125.788 13.502C125.827 13.505 125.86 13.514 125.887 13.529C125.917 13.541 125.945 13.5605 125.972 13.5875C125.999 13.6115 126.029 13.6445 126.062 13.6865L129.473 18.0425C129.464 17.9375 129.457 17.834 129.451 17.732C129.445 17.63 129.442 17.5355 129.442 17.4485V13.493H130.508ZM138.302 14.4875H136.34V20H135.13V14.4875H133.168V13.493H138.302V14.4875ZM142.169 20H140.954V13.493H142.169V20ZM150.911 13.493V20H150.29C150.194 20 150.113 19.985 150.047 19.955C149.984 19.922 149.923 19.868 149.863 19.793L146.465 15.455C146.483 15.653 146.492 15.836 146.492 16.004V20H145.426V13.493H146.06C146.111 13.493 146.155 13.496 146.191 13.502C146.23 13.505 146.263 13.514 146.29 13.529C146.32 13.541 146.348 13.5605 146.375 13.5875C146.402 13.6115 146.432 13.6445 146.465 13.6865L149.876 18.0425C149.867 17.9375 149.86 17.834 149.854 17.732C149.848 17.63 149.845 17.5355 149.845 17.4485V13.493H150.911ZM160.366 16.7465C160.366 17.2235 160.286 17.666 160.127 18.074C159.971 18.479 159.749 18.83 159.461 19.127C159.173 19.424 158.827 19.6565 158.422 19.8245C158.017 19.9895 157.567 20.072 157.072 20.072C156.58 20.072 156.131 19.9895 155.726 19.8245C155.321 19.6565 154.973 19.424 154.682 19.127C154.394 18.83 154.171 18.479 154.012 18.074C153.853 17.666 153.773 17.2235 153.773 16.7465C153.773 16.2695 153.853 15.8285 154.012 15.4235C154.171 15.0155 154.394 14.663 154.682 14.366C154.973 14.069 155.321 13.838 155.726 13.673C156.131 13.505 156.58 13.421 157.072 13.421C157.402 13.421 157.712 13.46 158.003 13.538C158.294 13.613 158.561 13.721 158.804 13.862C159.047 14 159.265 14.1695 159.457 14.3705C159.652 14.5685 159.817 14.7905 159.952 15.0365C160.087 15.2825 160.189 15.5495 160.258 15.8375C160.33 16.1255 160.366 16.4285 160.366 16.7465ZM159.128 16.7465C159.128 16.3895 159.08 16.07 158.984 15.788C158.888 15.503 158.752 15.2615 158.575 15.0635C158.398 14.8655 158.182 14.714 157.927 14.609C157.675 14.504 157.39 14.4515 157.072 14.4515C156.754 14.4515 156.467 14.504 156.212 14.609C155.96 14.714 155.744 14.8655 155.564 15.0635C155.387 15.2615 155.251 15.503 155.155 15.788C155.059 16.07 155.011 16.3895 155.011 16.7465C155.011 17.1035 155.059 17.4245 155.155 17.7095C155.251 17.9915 155.387 18.2315 155.564 18.4295C155.744 18.6245 155.96 18.7745 156.212 18.8795C156.467 18.9845 156.754 19.037 157.072 19.037C157.39 19.037 157.675 18.9845 157.927 18.8795C158.182 18.7745 158.398 18.6245 158.575 18.4295C158.752 18.2315 158.888 17.9915 158.984 17.7095C159.08 17.4245 159.128 17.1035 159.128 16.7465Z" fill="#010626"/>
<path d="M43.4076 27.526L43.4046 28H40.7556V23.701H43.4046V24.175H41.3376V25.603H43.0116V26.059H41.3376V27.526H43.4076ZM48.9015 23.701V28H48.6105C48.5645 28 48.5255 27.992 48.4935 27.976C48.4635 27.96 48.4335 27.933 48.4035 27.895L45.9165 24.655C45.9205 24.705 45.9235 24.754 45.9255 24.802C45.9275 24.85 45.9285 24.895 45.9285 24.937V28H45.4185V23.701H45.7185C45.7445 23.701 45.7665 23.703 45.7845 23.707C45.8025 23.709 45.8185 23.714 45.8325 23.722C45.8465 23.728 45.8605 23.738 45.8745 23.752C45.8885 23.764 45.9035 23.78 45.9195 23.8L48.4065 27.037C48.4025 26.985 48.3985 26.935 48.3945 26.887C48.3925 26.837 48.3915 26.79 48.3915 26.746V23.701H48.9015ZM54.6926 25.933V27.583C54.4766 27.739 54.2456 27.856 53.9996 27.934C53.7556 28.01 53.4876 28.048 53.1956 28.048C52.8496 28.048 52.5376 27.995 52.2596 27.889C51.9816 27.781 51.7436 27.631 51.5456 27.439C51.3496 27.245 51.1986 27.013 51.0926 26.743C50.9866 26.473 50.9336 26.176 50.9336 25.852C50.9336 25.524 50.9846 25.225 51.0866 24.955C51.1906 24.685 51.3376 24.454 51.5276 24.262C51.7176 24.068 51.9486 23.918 52.2206 23.812C52.4926 23.706 52.7966 23.653 53.1326 23.653C53.3026 23.653 53.4606 23.666 53.6066 23.692C53.7526 23.716 53.8876 23.752 54.0116 23.8C54.1356 23.846 54.2506 23.903 54.3566 23.971C54.4626 24.037 54.5616 24.112 54.6536 24.196L54.4886 24.46C54.4626 24.5 54.4286 24.526 54.3866 24.538C54.3466 24.548 54.3016 24.538 54.2516 24.508C54.2036 24.48 54.1486 24.446 54.0866 24.406C54.0246 24.366 53.9486 24.328 53.8586 24.292C53.7706 24.254 53.6656 24.222 53.5436 24.196C53.4236 24.17 53.2806 24.157 53.1146 24.157C52.8726 24.157 52.6536 24.197 52.4576 24.277C52.2616 24.355 52.0946 24.468 51.9566 24.616C51.8186 24.762 51.7126 24.94 51.6386 25.15C51.5646 25.358 51.5276 25.592 51.5276 25.852C51.5276 26.122 51.5656 26.364 51.6416 26.578C51.7196 26.79 51.8296 26.971 51.9716 27.121C52.1156 27.269 52.2896 27.382 52.4936 27.46C52.6976 27.538 52.9266 27.577 53.1806 27.577C53.3806 27.577 53.5576 27.555 53.7116 27.511C53.8676 27.465 54.0196 27.402 54.1676 27.322V26.377H53.4986C53.4606 26.377 53.4296 26.366 53.4056 26.344C53.3836 26.322 53.3726 26.295 53.3726 26.263V25.933H54.6926ZM59.4354 27.526L59.4324 28H56.7834V23.701H59.4324V24.175H57.3654V25.603H59.0394V26.059H57.3654V27.526H59.4354ZM64.9293 23.701V28H64.6383C64.5923 28 64.5533 27.992 64.5213 27.976C64.4913 27.96 64.4613 27.933 64.4313 27.895L61.9443 24.655C61.9483 24.705 61.9513 24.754 61.9533 24.802C61.9553 24.85 61.9563 24.895 61.9563 24.937V28H61.4463V23.701H61.7463C61.7723 23.701 61.7943 23.703 61.8123 23.707C61.8303 23.709 61.8463 23.714 61.8603 23.722C61.8743 23.728 61.8883 23.738 61.9023 23.752C61.9163 23.764 61.9313 23.78 61.9473 23.8L64.4343 27.037C64.4303 26.985 64.4263 26.935 64.4223 26.887C64.4203 26.837 64.4193 26.79 64.4193 26.746V23.701H64.9293ZM70.7113 23.701V28H70.1293V26.044H67.8103V28H67.2283V23.701H67.8103V25.618H70.1293V23.701H70.7113ZM75.6623 27.526L75.6593 28H73.0103V23.701H75.6593V24.175H73.5923V25.603H75.2663V26.059H73.5923V27.526H75.6623ZM78.2552 28H77.6732V23.701H78.2552V28ZM81.7459 25.783C81.9139 25.783 82.0619 25.763 82.1899 25.723C82.3199 25.681 82.4279 25.623 82.5139 25.549C82.6019 25.473 82.6679 25.383 82.7119 25.279C82.7559 25.175 82.7779 25.06 82.7779 24.934C82.7779 24.678 82.6939 24.485 82.5259 24.355C82.3579 24.225 82.1059 24.16 81.7699 24.16H81.1339V25.783H81.7459ZM83.7319 28H83.2159C83.1099 28 83.0319 27.959 82.9819 27.877L81.8659 26.341C81.8319 26.293 81.7949 26.259 81.7549 26.239C81.7169 26.217 81.6569 26.206 81.5749 26.206H81.1339V28H80.5549V23.701H81.7699C82.0419 23.701 82.2769 23.729 82.4749 23.785C82.6729 23.839 82.8359 23.918 82.9639 24.022C83.0939 24.126 83.1899 24.252 83.2519 24.4C83.3139 24.546 83.3449 24.71 83.3449 24.892C83.3449 25.044 83.3209 25.186 83.2729 25.318C83.2249 25.45 83.1549 25.569 83.0629 25.675C82.9729 25.779 82.8619 25.868 82.7299 25.942C82.5999 26.016 82.4519 26.072 82.2859 26.11C82.3599 26.152 82.4239 26.213 82.4779 26.293L83.7319 28ZM89.4476 25.852C89.4476 26.174 89.3966 26.47 89.2946 26.74C89.1926 27.008 89.0486 27.239 88.8626 27.433C88.6766 27.627 88.4526 27.778 88.1906 27.886C87.9306 27.992 87.6426 28.045 87.3266 28.045C87.0106 28.045 86.7226 27.992 86.4626 27.886C86.2026 27.778 85.9796 27.627 85.7936 27.433C85.6076 27.239 85.4636 27.008 85.3616 26.74C85.2596 26.47 85.2086 26.174 85.2086 25.852C85.2086 25.53 85.2596 25.235 85.3616 24.967C85.4636 24.697 85.6076 24.465 85.7936 24.271C85.9796 24.075 86.2026 23.923 86.4626 23.815C86.7226 23.707 87.0106 23.653 87.3266 23.653C87.6426 23.653 87.9306 23.707 88.1906 23.815C88.4526 23.923 88.6766 24.075 88.8626 24.271C89.0486 24.465 89.1926 24.697 89.2946 24.967C89.3966 25.235 89.4476 25.53 89.4476 25.852ZM88.8506 25.852C88.8506 25.588 88.8146 25.351 88.7426 25.141C88.6706 24.931 88.5686 24.754 88.4366 24.61C88.3046 24.464 88.1446 24.352 87.9566 24.274C87.7686 24.196 87.5586 24.157 87.3266 24.157C87.0966 24.157 86.8876 24.196 86.6996 24.274C86.5116 24.352 86.3506 24.464 86.2166 24.61C86.0846 24.754 85.9826 24.931 85.9106 25.141C85.8386 25.351 85.8026 25.588 85.8026 25.852C85.8026 26.116 85.8386 26.353 85.9106 26.563C85.9826 26.771 86.0846 26.948 86.2166 27.094C86.3506 27.238 86.5116 27.349 86.6996 27.427C86.8876 27.503 87.0966 27.541 87.3266 27.541C87.5586 27.541 87.7686 27.503 87.9566 27.427C88.1446 27.349 88.3046 27.238 88.4366 27.094C88.5686 26.948 88.6706 26.771 88.7426 26.563C88.8146 26.353 88.8506 26.116 88.8506 25.852ZM96.8674 27.526L96.8644 28H94.2154V23.701H96.8644V24.175H94.7974V25.603H96.4714V26.059H94.7974V27.526H96.8674ZM101.317 27.511V28H98.8783V23.701H99.4573V27.511H101.317ZM105.812 27.526L105.809 28H103.16V23.701H105.809V24.175H103.742V25.603H105.416V26.059H103.742V27.526H105.812ZM110.73 24.19H109.338V28H108.759V24.19H107.364V23.701H110.73V24.19ZM113.759 25.783C113.927 25.783 114.075 25.763 114.203 25.723C114.333 25.681 114.441 25.623 114.527 25.549C114.615 25.473 114.681 25.383 114.725 25.279C114.769 25.175 114.791 25.06 114.791 24.934C114.791 24.678 114.707 24.485 114.539 24.355C114.371 24.225 114.119 24.16 113.783 24.16H113.147V25.783H113.759ZM115.745 28H115.229C115.123 28 115.045 27.959 114.995 27.877L113.879 26.341C113.845 26.293 113.808 26.259 113.768 26.239C113.73 26.217 113.67 26.206 113.588 26.206H113.147V28H112.568V23.701H113.783C114.055 23.701 114.29 23.729 114.488 23.785C114.686 23.839 114.849 23.918 114.977 24.022C115.107 24.126 115.203 24.252 115.265 24.4C115.327 24.546 115.358 24.71 115.358 24.892C115.358 25.044 115.334 25.186 115.286 25.318C115.238 25.45 115.168 25.569 115.076 25.675C114.986 25.779 114.875 25.868 114.743 25.942C114.613 26.016 114.465 26.072 114.299 26.11C114.373 26.152 114.437 26.213 114.491 26.293L115.745 28ZM118.112 28H117.53V23.701H118.112V28ZM123.43 27.112C123.462 27.112 123.49 27.125 123.514 27.151L123.745 27.4C123.569 27.604 123.355 27.763 123.103 27.877C122.853 27.991 122.55 28.048 122.194 28.048C121.886 28.048 121.606 27.995 121.354 27.889C121.102 27.781 120.887 27.631 120.709 27.439C120.531 27.245 120.393 27.013 120.295 26.743C120.197 26.473 120.148 26.176 120.148 25.852C120.148 25.528 120.199 25.231 120.301 24.961C120.403 24.691 120.546 24.459 120.73 24.265C120.916 24.071 121.138 23.921 121.396 23.815C121.654 23.707 121.939 23.653 122.251 23.653C122.557 23.653 122.827 23.702 123.061 23.8C123.295 23.898 123.501 24.031 123.679 24.199L123.487 24.466C123.475 24.486 123.459 24.503 123.439 24.517C123.421 24.529 123.396 24.535 123.364 24.535C123.328 24.535 123.284 24.516 123.232 24.478C123.18 24.438 123.112 24.394 123.028 24.346C122.944 24.298 122.839 24.255 122.713 24.217C122.587 24.177 122.432 24.157 122.248 24.157C122.026 24.157 121.823 24.196 121.639 24.274C121.455 24.35 121.296 24.461 121.162 24.607C121.03 24.753 120.927 24.931 120.853 25.141C120.779 25.351 120.742 25.588 120.742 25.852C120.742 26.12 120.78 26.359 120.856 26.569C120.934 26.779 121.039 26.957 121.171 27.103C121.305 27.247 121.462 27.357 121.642 27.433C121.824 27.509 122.02 27.547 122.23 27.547C122.358 27.547 122.473 27.54 122.575 27.526C122.679 27.51 122.774 27.486 122.86 27.454C122.948 27.422 123.029 27.382 123.103 27.334C123.179 27.284 123.254 27.225 123.328 27.157C123.362 27.127 123.396 27.112 123.43 27.112ZM126.201 28H125.619V23.701H126.201V28ZM130.7 24.373C130.682 24.403 130.662 24.426 130.64 24.442C130.62 24.456 130.595 24.463 130.565 24.463C130.531 24.463 130.491 24.446 130.445 24.412C130.399 24.378 130.341 24.341 130.271 24.301C130.203 24.259 130.12 24.221 130.022 24.187C129.926 24.153 129.809 24.136 129.671 24.136C129.541 24.136 129.426 24.154 129.326 24.19C129.228 24.224 129.145 24.271 129.077 24.331C129.011 24.391 128.961 24.462 128.927 24.544C128.893 24.624 128.876 24.711 128.876 24.805C128.876 24.925 128.905 25.025 128.963 25.105C129.023 25.183 129.101 25.25 129.197 25.306C129.295 25.362 129.405 25.411 129.527 25.453C129.651 25.493 129.777 25.535 129.905 25.579C130.035 25.623 130.161 25.673 130.283 25.729C130.407 25.783 130.517 25.852 130.613 25.936C130.711 26.02 130.789 26.123 130.847 26.245C130.907 26.367 130.937 26.517 130.937 26.695C130.937 26.883 130.905 27.06 130.841 27.226C130.777 27.39 130.683 27.533 130.559 27.655C130.437 27.777 130.286 27.873 130.106 27.943C129.928 28.013 129.725 28.048 129.497 28.048C129.217 28.048 128.963 27.998 128.735 27.898C128.507 27.796 128.312 27.659 128.15 27.487L128.318 27.211C128.334 27.189 128.353 27.171 128.375 27.157C128.399 27.141 128.425 27.133 128.453 27.133C128.479 27.133 128.508 27.144 128.54 27.166C128.574 27.186 128.612 27.212 128.654 27.244C128.696 27.276 128.744 27.311 128.798 27.349C128.852 27.387 128.913 27.422 128.981 27.454C129.051 27.486 129.13 27.513 129.218 27.535C129.306 27.555 129.405 27.565 129.515 27.565C129.653 27.565 129.776 27.546 129.884 27.508C129.992 27.47 130.083 27.417 130.157 27.349C130.233 27.279 130.291 27.196 130.331 27.1C130.371 27.004 130.391 26.897 130.391 26.779C130.391 26.649 130.361 26.543 130.301 26.461C130.243 26.377 130.166 26.307 130.07 26.251C129.974 26.195 129.864 26.148 129.74 26.11C129.616 26.07 129.49 26.03 129.362 25.99C129.234 25.948 129.108 25.9 128.984 25.846C128.86 25.792 128.75 25.722 128.654 25.636C128.558 25.55 128.48 25.443 128.42 25.315C128.362 25.185 128.333 25.025 128.333 24.835C128.333 24.683 128.362 24.536 128.42 24.394C128.48 24.252 128.566 24.126 128.678 24.016C128.792 23.906 128.931 23.818 129.095 23.752C129.261 23.686 129.451 23.653 129.665 23.653C129.905 23.653 130.123 23.691 130.319 23.767C130.517 23.843 130.691 23.953 130.841 24.097L130.7 24.373ZM135.866 24.19H134.474V28H133.895V24.19H132.5V23.701H135.866V24.19ZM139.565 26.404L138.89 24.655C138.87 24.603 138.849 24.543 138.827 24.475C138.805 24.405 138.784 24.331 138.764 24.253C138.722 24.415 138.679 24.55 138.635 24.658L137.96 26.404H139.565ZM140.777 28H140.327C140.275 28 140.233 27.987 140.201 27.961C140.169 27.935 140.145 27.902 140.129 27.862L139.727 26.824H137.798L137.396 27.862C137.384 27.898 137.361 27.93 137.327 27.958C137.293 27.986 137.251 28 137.201 28H136.751L138.47 23.701H139.058L140.777 28Z" fill="#021859"/>
</svg>
