<svg width="48" height="49" viewBox="0 0 48 49" fill="none" xmlns="http://www.w3.org/2000/svg">
<path d="M0 9.07872V1.25827C0 0.563344 0.563346 0 1.25827 0H6.95339C7.64831 0 8.21165 0.563346 8.21165 1.25827V9.07872H0Z" fill="#2E2E48"/>
<path d="M43.9311 38.1227C41.6837 38.1227 39.8618 36.3008 39.8618 34.0534V34.0534C39.8618 31.806 41.6837 29.9841 43.9311 29.9841V29.9841C46.1785 29.9841 48.0004 31.806 48.0004 34.0534V34.0534C48.0004 36.3008 46.1785 38.1227 43.9311 38.1227V38.1227Z" fill="#2E2E48"/>
<path fill-rule="evenodd" clip-rule="evenodd" d="M12.5944 12.1886V37.1175H20.8061V23.0229C20.8061 21.7856 21.1923 20.7992 21.9648 20.0635C22.7372 19.2944 23.6944 18.9099 24.8363 18.9099C25.8775 18.9099 26.7675 19.261 27.5064 19.9632C28.2453 20.6654 28.6147 21.6853 28.6147 23.0229V37.1175H32.6321C34.9485 37.1175 36.8264 35.2397 36.8264 32.9233V21.2673C36.8264 18.3916 35.9028 16.0843 34.0555 14.3454C32.2419 12.5731 29.9749 11.687 27.2545 11.687C24.4669 11.687 22.1831 12.5731 20.403 14.3454V12.1886H12.5944ZM0 12.1885V48.4031L3.46889 46.1865C6.42364 44.2984 8.21165 41.034 8.21165 37.5275V12.1885H0Z" fill="#2E2E48"/>
</svg>
