<svg width="48" height="45" viewBox="0 0 48 45" fill="none" xmlns="http://www.w3.org/2000/svg">
<rect width="48" height="44.4179" rx="10" fill="white"/>
<path d="M27.0032 27.7299V35.1062H31.322V26.6881C30.1838 26.6302 28.7245 26.8502 27.0032 27.7299Z" fill="#010626"/>
<path d="M31.3228 22.0082V16.1319C31.3228 15.4287 31.8775 14.8356 32.5349 14.8356H33.0622V10.5579H32.5349C29.4844 10.5579 27.0032 13.0586 27.0032 16.1319V22.8121C26.5782 22.9436 26.1609 23.0992 25.7535 23.278V7.16418C23.3909 7.16418 21.4758 9.07934 21.4758 11.4419V18.2573C20.4076 17.6535 19.2006 17.3381 17.9736 17.3421C13.9874 17.3415 10.7463 20.6031 10.7463 24.613C10.7463 28.5981 13.9874 31.8404 17.9736 31.8404C19.2007 31.8445 20.4077 31.529 21.4758 30.9249C21.4758 30.9249 27.685 22.8489 34.4181 26.3283V22.0082H31.3228ZM17.9736 27.5212C16.3426 27.5212 15.066 26.2448 15.066 24.6138C15.066 22.9861 16.3694 21.6621 17.9736 21.6621C19.6 21.6621 20.9228 22.9851 20.9253 24.6138C20.9253 26.2166 19.6009 27.5212 17.9736 27.5212Z" fill="#021859"/>
</svg>
